<svg xmlns="http://www.w3.org/2000/svg" viewBox="0 0 256 256" role="img" aria-labelledby="t d">
  <title id="t">Cannabis start icon</title>
  <desc id="d">Rounded icon with stylized cannabis leaf for app splash screen.</desc>
  <defs>
    <linearGradient id="bg" x1="0" y1="0" x2="1" y2="1">
      <stop offset="0" stop-color="#101913"/>
      <stop offset="1" stop-color="#0a0f0d"/>
    </linearGradient>
    <linearGradient id="leaf" x1="0" y1="0" x2="0" y2="1">
      <stop offset="0" stop-color="#b6f36b"/>
      <stop offset="1" stop-color="#2f9444"/>
    </linearGradient>
  </defs>

  <rect x="8" y="8" width="240" height="240" rx="56" fill="url(#bg)"/>
  <circle cx="128" cy="128" r="90" fill="#0f1913" stroke="#264034" stroke-width="2"/>

  <path d="M128 44c7 26 15 40 27 56-13-2-24-8-34-18 1 17 8 33 20 47-12-2-19-6-24-12v71h22v14h-22v16h-14v-16h-22v-14h22v-71c-5 6-12 10-24 12 12-14 19-30 20-47-10 10-21 16-34 18 12-16 20-30 27-56h14z" fill="url(#leaf)" stroke="#1e6336" stroke-width="3" stroke-linejoin="round"/>
  <path d="M128 66c-6 18-14 30-24 42 8-2 17-7 24-15v-27z" fill="#d8ff9d" opacity=".65"/>
</svg>
